<?xml version="1.0" encoding="UTF-8"?>
<svg id="Layer_2" data-name="Layer 2" xmlns="http://www.w3.org/2000/svg" viewBox="0 0 428.03 476.58">
  <style>
      path { fill: #000; }
      @media (prefers-color-scheme: dark) {
          path { fill: #FFF; }
      }
  </style>
  <g id="Layer_1-2" data-name="Layer 1">
    <g>
      <path d="m422.51,207.54c24.28,105.86-35.06,199.67-108.68,235.7,0-11.89-.18-24.11.19-36.32.06-1.95,2.28-4.31,4.11-5.66,23.3-17.15,42.91-37.65,55.76-63.75,59.28-120.46-20.17-241.21-128.43-259.56-3.09-.53-6.17-1.13-9.34-1.71v-33.63c39.07,3.3,73.63,17.34,104.69,40.2,42.65,31.4,69.88,73.2,81.7,124.73Z"/>
      <path d="m298.52,179.3c0,3.19.07,6.26-.01,9.32-.18,7.33-.34,14.65-.67,21.97-.34,7.23-4.21,12.07-11.74,14.73v-46.02h12.42Z"/>
      <path d="m273.18,225.53c.21,5.29-1.51,8.11-6.45,9.42-1.88.5-3.65,1.42-5.94,2.35v-57.82h12.25v11.07c0,11.66-.32,23.34.14,34.98Z"/>
      <path d="m160.72,426.31c4.1,1.4,6.32,3.02,6.51,7.82.45,11.02,4.47,21.04,10.87,30.92C91.57,452.72,1.21,373.4.01,257.22-1.24,137.01,91.59,60.27,166.8,47.08c0,10.7.18,21.33-.22,31.94-.05,1.36-2.95,3.23-4.85,3.8-20.94,6.38-40.21,15.99-57.34,29.63-55.77,44.39-79.18,102.85-67.53,172.35,11.94,71.21,55.4,118.14,123.86,141.51Z"/>
      <path d="m280.18,109.6c11.95,9.47,18.13,21.91,18.45,37.16.14,6.29.02,12.59.02,19.19h-12.96v-14.91h-12.46v14.87h-13.12c0-3.63.01-7.09,0-10.55-.06-13.21-7.98-22.11-19.8-22.24-11.4-.13-19.66,9.18-19.66,22.4-.04,54.67-.02,109.34-.02,164.01,0,34-.04,68.01.02,102.01.02,11.02,6.04,18.81,15.73,20.8,11.71,2.41,22.74-5.86,23.62-17.72.13-1.82.1-3.66.1-5.49.01-33.17.01-66.34.01-99.51v-6.28c-7.95-.65-11.85-5.88-14.87-12.08-4.26-8.77-8.45-17.57-13.05-27.16h24.27c7.5,0,15-.02,22.5,0,13.1.05,19.59,6.5,19.67,19.73.09,13.17.02,26.34.02,39.51.01,31.17.01,62.33,0,93.5-.01,27.89-17.36,47.19-45.22,49.19-10.86.79-22.09.93-32.76-.91-23.69-4.08-38.28-22.35-38.55-46.45-.18-17-.03-34-.04-51.01v-5.24c-11.52,0-22.35.56-33.1-.11-25.45-1.58-42.86-19.81-44.12-45.47-.1-1.99,0-4-.07-5.99-.48-12.72,4.2-21.77,17.07-26,6.75-2.21,13.04-5.79,20.09-9,.21,1.66.49,2.87.5,4.09.04,8.33.01,16.66.02,25,.02,14.95,7.23,23.88,19.4,24.02,12.43.13,20.14-8.99,20.14-23.9V.19c9.81,0,19.12-.54,28.32.22,5.08.42,8.39,4.62,9.44,9.81.56,2.75.76,5.62.77,8.43.05,25,.03,50.01.03,75.01v5.99c10.31,0,20.11.07,29.9-.02,11.08-.11,21.03,3.09,29.71,9.97Z"/>
    </g>
  </g>
</svg>